<?xml version="1.0" encoding="utf-8"?>
<!-- Generator: Adobe Illustrator 22.1.0, SVG Export Plug-In . SVG Version: 6.00 Build 0)  -->
<svg version="1.1" id="Layer_1" xmlns="http://www.w3.org/2000/svg" xmlns:xlink="http://www.w3.org/1999/xlink" x="0px" y="0px"
	 viewBox="0 0 81.4 81.4" style="enable-background:new 0 0 81.4 81.4;" xml:space="preserve">
<g>
	<path d="M4.4,32.8c5.8-5.8,12.8-8.7,20.9-8.7c8.2,0,15.2,2.9,21,8.7c1.1,1.2,2.1,2.4,3.1,3.6v-7.5h4.9v52.5h11.7V33.8h-5.4v-4.9
		h5.4V14.6c0.2-4,1.7-7.4,4.6-10.3c2.6-2.4,5.4-3.7,8.7-4C78.8,0.1,78.4,0,78,0H3.4C1.5,0,0,1.5,0,3.4v34.8
		C1.2,36.3,2.7,34.5,4.4,32.8z"/>
	<path d="M49.4,71.1c-0.9,1.3-2,2.5-3.1,3.6c-3,3-6.4,5.3-10.1,6.7h13.2V71.1z"/>
	<path d="M70.8,14.9v14h10.6V4.6c-0.1,0-0.1,0-0.2,0c-2.6,0-5,1-7.2,3.1C72,9.7,70.9,12.1,70.8,14.9z"/>
	<path d="M70.8,33.8v47.6H78c1.9,0,3.4-1.5,3.4-3.4V33.8H70.8z"/>
	<path d="M49.4,49c-0.9-4.7-3.1-8.9-6.7-12.5c-4.8-4.8-10.6-7.2-17.3-7.2c-6.8,0-12.5,2.4-17.3,7.2C3.2,41.2,0.8,47,0.8,53.8
		c0,6.8,2.4,12.5,7.2,17.3c4.8,4.8,10.6,7.1,17.3,7.1c6.8,0,12.5-2.4,17.3-7.2c3.6-3.6,5.8-7.7,6.7-12.5V49z"/>
	<path d="M4.4,74.7C2.7,73,1.2,71.2,0,69.2V78c0,1.9,1.5,3.4,3.4,3.4h11C10.8,80,7.4,77.7,4.4,74.7z"/>
</g>
</svg>
