<?xml version="1.0" encoding="utf-8"?>
<!-- Generator: Adobe Illustrator 22.1.0, SVG Export Plug-In . SVG Version: 6.00 Build 0)  -->
<svg version="1.1" id="Layer_1" xmlns="http://www.w3.org/2000/svg" xmlns:xlink="http://www.w3.org/1999/xlink" x="0px" y="0px"
	 viewBox="0 0 591 1448.5" style="enable-background:new 0 0 591 1448.5;" xml:space="preserve">
<style type="text/css">
	.st0{fill:#8EAFC8;}
	.st1{fill:#897D78;}
	.st2{fill:#6B625E;}
	.st3{font-family:'NewsGothicMT-Bold';}
	.st4{font-size:12px;}
	.st5{font-size:10.45px;}
	.st6{font-family:'NewsGothicMT';}
	.st7{font-size:8.55px;}
	.st8{fill:none;}
	.st9{font-size:9.5px;}
	.st10{letter-spacing:69;}
	.st11{letter-spacing:95;}
	.st12{letter-spacing:119;}
	.st13{opacity:0.66;}
</style>
<g id="Layer_2_1_">
	<g id="Layer_5">
	</g>
</g>
<g id="Layer_6">
	<rect x="52.6" y="263.8" class="st0" width="16.4" height="16.4"/>
	<rect x="52.6" y="788.6" class="st1" width="16.4" height="16.4"/>
	<g>
		<path class="st0" d="M68.1,1051.7v14.5H53.6v-14.5H68.1 M69.1,1050.8H52.6v16.4H69L69.1,1050.8L69.1,1050.8z"/>
	</g>
	<g>
		<g>
			<path class="st0" d="M114.6,121.7v14.5H100v-14.5H114.6 M115.5,120.8H99.1v16.4h16.4V120.8L115.5,120.8z"/>
		</g>
		<rect x="33.6" y="120.8" class="st0" width="16.4" height="16.4"/>
		<rect x="55.4" y="120.8" class="st1" width="16.4" height="16.4"/>
		<rect x="77.2" y="120.8" class="st0" width="16.4" height="16.4"/>
	</g>
	<text transform="matrix(1 0 0 1 376.2302 52.5708)" class="st2 st3 st4">Contact Info.</text>
	<text transform="matrix(1 0 0 1 376.2302 67.6708)" class="st2 st3 st5">Audrey Fernandez</text>
	<text transform="matrix(1 0 0 1 376.2302 81.0708)" class="st2 st6 st7">Ph.        </text>
	<text transform="matrix(1 0 0 1 411.1302 81.0708)" class="st2 st6 st7"> </text>
	<text transform="matrix(1 0 0 1 413.3302 81.0708)" class="st2 st6 st7">714.336.3652</text>
	<text transform="matrix(1 0 0 1 376.2302 93.4708)" class="st2 st6 st7">Email. </text>
	<text transform="matrix(1 0 0 1 412.5302 93.4708)" class="st0 st6 st7">me@audreyfernandez.com</text>
	<text transform="matrix(1 0 0 1 376.2302 105.7708)" class="st2 st6 st7">Portfolio. </text>
	<text transform="matrix(1 0 0 1 416.2302 105.7708)" class="st2 st6 st7"> </text>
	<text transform="matrix(1 0 0 1 413.7302 105.7708)" class="st0 st6 st7">www.audreyfernandez.com</text>
	<text transform="matrix(1 0 0 1 498.7302 105.7708)" class="st0 st6 st7">.</text>
	<rect x="131.8" y="125.2" class="st8" width="397.1" height="241.3"/>
	<text transform="matrix(1 0 0 1 131.8208 134.3472)" class="st2 st3 st4">Profile.</text>
	<text transform="matrix(1 0 0 1 131.8208 154.6472)" class="st2 st6 st7">With over 25 years of professional experience as a graphic artist, I have the ability to design and </text>
	<text transform="matrix(1 0 0 1 131.8208 167.0471)" class="st2 st6 st7">create custom artwork to meet whatever need the project calls for. I am technically trained in all </text>
	<text transform="matrix(1 0 0 1 131.8208 179.3472)" class="st2 st6 st7">areas of digital pre-press and production. I design, create and prepare graphics for all types of </text>
	<text transform="matrix(1 0 0 1 131.8208 191.7472)" class="st2 st6 st7">printing: screen print, offset, digital, thermographic, flexographic, and sublimation. I am also an </text>
	<text transform="matrix(1 0 0 1 131.8208 204.0471)" class="st2 st6 st7">accomplished web designer and developer, creating artwork and writing code for fully functional, </text>
	<text transform="matrix(1 0 0 1 131.8208 216.4472)" class="st2 st6 st7">custom designed web pages and applications.</text>
	<text transform="matrix(1 0 0 1 131.8208 226.6472)" class="st2 st6 st7"> </text>
	<rect x="56.8" y="229" class="st8" width="472.1" height="528.7"/>
	<text transform="matrix(1 0 0 1 56.8081 249.5024)" class="st2 st3 st4">Professional History.</text>
	<text transform="matrix(1 0 0 1 81.5081 274.6024)" class="st2 st3 st9">Art Director | Screen Art LLC. </text>
	<text transform="matrix(1 0 0 1 222.6081 274.6024)" class="st2 st3 st9 st10"> </text>
	<text transform="matrix(1 0 0 1 299.3081 274.6024)" class="st0 st3 st9">March 1999 - June 2003 and June 2007- Present</text>
	<text transform="matrix(1 0 0 1 81.5081 287.7024)" class="st2 st6 st7">• Design and create custom artwork as needed for silk screen, sublimation, and offset printing</text>
	<text transform="matrix(1 0 0 1 81.5081 300.8024)" class="st2 st6 st7">• Modify and prepare all customer supplied artwork for spot separation</text>
	<text transform="matrix(1 0 0 1 81.5081 313.9024)" class="st2 st6 st7">• Coordinate with clients, artists and production managers to ensure accurate job execution</text>
	<text transform="matrix(1 0 0 1 81.5081 327.0024)" class="st2 st6 st7">• Generate and supply proofs to verify job specifications and obtain final customer approvals</text>
	<text transform="matrix(1 0 0 1 81.5081 340.1024)" class="st2 st6 st7">• Perform spot, index, and four-color process separation from customer supplied raster and vector art</text>
	<text transform="matrix(1 0 0 1 81.5081 353.2024)" class="st2 st6 st7">• Output separated art to thermographic film and check films for quality</text>
	<text transform="matrix(1 0 0 1 81.5081 366.4024)" class="st2 st6 st7">• Design and maintain all company web-sites, literature and creative related materials</text>
	<text transform="matrix(1 0 0 1 81.5081 379.5024)" class="st2 st6 st7">• Execute photo shoots for mock-ups or strike-off proofs and perform all necessary digital modifications</text>
	<text transform="matrix(1 0 0 1 81.5081 394.5024)" class="st2 st3 st7">Accomplishments</text>
	<text transform="matrix(1 0 0 1 81.5081 407.8024)" class="st2 st6 st7">• Redesigned the company logo, stationary and web site to reflect a more modern image. The updated site </text>
	<text transform="matrix(1 0 0 1 87.2081 420.1024)" class="st2 st6 st7">attracted new customers increasing annual sales by 35% in the first year.</text>
	<text transform="matrix(1 0 0 1 81.5081 435.3024)" class="st2 st6 st7">• Implemented a client proofing process to better address clients needs and reduce production errors. </text>
	<text transform="matrix(1 0 0 1 81.5081 450.5024)" class="st2 st6 st7">• Implemented an email based photo proofing system for clients to review printed garment before full </text>
	<text transform="matrix(1 0 0 1 87.2081 462.9024)" class="st2 st6 st7">production is run. This process helped helped to increase client satisfaction and overall production quality.</text>
	<text transform="matrix(1 0 0 1 81.5081 494.8024)" class="st2 st3 st9">Production Artist | Lakeshore Learning Materials</text>
	<text transform="matrix(1 0 0 1 308.5081 494.8024)" class="st2 st3 st9 st11"> </text>
	<text transform="matrix(1 0 0 1 409.7081 494.8024)" class="st0 st3 st9">August 2005 - June 2007</text>
	<text transform="matrix(1 0 0 1 81.5081 507.9024)" class="st2 st6 st7">• Design and create artwork for product packaging of early childhood toys and learning materials</text>
	<text transform="matrix(1 0 0 1 81.5081 521.0024)" class="st2 st6 st7">• Work closely with Research and Development staff to design a complete product for executive approval</text>
	<text transform="matrix(1 0 0 1 81.5081 534.1024)" class="st2 st6 st7">• Prepare artwork for pre-press approval and meet vendor specifications</text>
	<text transform="matrix(1 0 0 1 81.5081 549.1024)" class="st2 st3 st7">Accomplishments</text>
	<text transform="matrix(1 0 0 1 81.5081 562.4024)" class="st2 st6 st7">• Hired for a temporary position as a Freelance Graphic Artist but was kept on consistently as part of the </text>
	<text transform="matrix(1 0 0 1 87.2081 574.8024)" class="st2 st6 st7">Product Art Team because of my technical versatility and ability to create print ready art under extremely </text>
	<text transform="matrix(1 0 0 1 87.2081 587.1024)" class="st2 st6 st7">tight deadlines.</text>
	<text transform="matrix(1 0 0 1 81.5081 619.1024)" class="st2 st3 st9">Associate Art Director | Venus Laboratories</text>
	<text transform="matrix(1 0 0 1 283.5081 619.1024)" class="st2 st3 st9 st12"> </text>
	<text transform="matrix(1 0 0 1 409.7081 619.1024)" class="st0 st3 st9">June 2003 - August 2005</text>
	<text transform="matrix(1 0 0 1 81.5081 632.2024)" class="st2 st6 st7">• Design and create labels for all products manufactured and sold by Venus Laboratories </text>
	<text transform="matrix(1 0 0 1 81.5081 645.3024)" class="st2 st6 st7">• Design and create marketing material and advertising for publication and display</text>
	<text transform="matrix(1 0 0 1 81.5081 658.4024)" class="st2 st6 st7">• Set up and perform in-house photo shoots necessary for product literature and labeling</text>
	<text transform="matrix(1 0 0 1 81.5081 671.5024)" class="st2 st6 st7">• Perform all prepress file preparation necessary for flexographic and offset printing</text>
	<text transform="matrix(1 0 0 1 81.5081 684.6024)" class="st2 st6 st7">• Oversee press checks and approve printer supplied proofs for production</text>
	<text transform="matrix(1 0 0 1 81.5081 699.6024)" class="st2 st3 st7">Accomplishments</text>
	<text transform="matrix(1 0 0 1 81.5081 712.9024)" class="st2 st6 st7">• Assisted in the design and implementation of new packaging for the Earth Friendly Products line, Venus </text>
	<text transform="matrix(1 0 0 1 87.2081 725.3024)" class="st2 st6 st7">Laboratories most successful organic line of household cleaning products. The product line is now carried in </text>
	<text transform="matrix(1 0 0 1 87.2081 737.6024)" class="st2 st6 st7">many popular retail stores such as; Trader Joe&apos;s, Whole Foods, Fresh &amp; Easy, Ralph’s and Mother’s Markets.</text>
	<g>
		<g>
			<path class="st0" d="M553.1,1379v14.5h-14.5V1379H553.1 M554,1378h-16.4v16.4H554V1378L554,1378z"/>
		</g>
		<rect x="537.6" y="1399.9" class="st1" width="16.4" height="16.4"/>
		<rect x="56.8" y="765.1" class="st8" width="472.1" height="640.4"/>
		<text transform="matrix(1 0 0 1 56.8082 774.1801)" class="st2 st3 st4">Attributes and Skills.</text>
		<text transform="matrix(1 0 0 1 81.5082 798.0801)" class="st2 st6 st7">Creating and preparing digital artwork for silk screen, offset and flexographic label printing; spot, process and </text>
		<text transform="matrix(1 0 0 1 81.5082 810.4801)" class="st2 st6 st7">index color separation for film output; creating vector art from raster or bitmapped images; layout and design </text>
		<text transform="matrix(1 0 0 1 81.5082 822.7802)" class="st2 st6 st7">of spot and 4-color process literature; web site design, email marketing administration and animated Flash </text>
		<text transform="matrix(1 0 0 1 81.5082 835.1801)" class="st2 st6 st7">production; photo touch-up and modification; artwork reproduction and rendering. Able to manage my time </text>
		<text transform="matrix(1 0 0 1 81.5082 847.4801)" class="st2 st6 st7">efficiently and work indepenently under very tight deadlines.</text>
		<text transform="matrix(1 0 0 1 81.5082 872.1801)" class="st2 st3 st7">Software Experience.</text>
		<text transform="matrix(1 0 0 1 81.5082 884.5801)" class="st2 st6 st7">Mac and Windows O/S. Adobe Creative Suite Programs (CC) including: Photoshop, Illustrator, Dreamweaver, </text>
		<text transform="matrix(1 0 0 1 81.5082 896.8801)" class="st2 st6 st7">Muse, Flash, and InDesign. Front end and back end web development platforms including HTML5, CSS, </text>
		<text transform="matrix(1 0 0 1 81.5082 909.2802)" class="st2 st6 st7">Javascript, jQuery, AJAX, Node.js. Additionally, I have experience working with Quark Express, Macromedia </text>
		<text transform="matrix(1 0 0 1 81.5082 921.5801)" class="st2 st6 st7">Freehand, Microsoft Word, Microsoft Excel, Powerpoint, XHTML, CSS, Flash ActionScript 2.0/3.0, and </text>
		<text transform="matrix(1 0 0 1 81.5082 933.9801)" class="st2 st6 st7">WordPress.</text>
		<text transform="matrix(1 0 0 1 127.1082 933.9801)" class="st2 st6 st7"> </text>
		<text transform="matrix(1 0 0 1 81.5082 958.6801)" class="st2 st3 st7">Hardware Experience.</text>
		<text transform="matrix(1 0 0 1 81.5082 970.9801)" class="st2 st6 st7">All macintosh platforms, Oyo Imagesetter (for process and spot film output), Roland GX-24 Vinyl Cutter, </text>
		<text transform="matrix(1 0 0 1 81.5082 983.3801)" class="st2 st6 st7">Large Document Scanner, SLR digital camera and all peripheral equipment necessary for graphic design and </text>
		<text transform="matrix(1 0 0 1 81.5082 995.6801)" class="st2 st6 st7">production art.</text>
		<text transform="matrix(1 0 0 1 56.8082 1034.4801)" class="st2 st3 st4">Certificates and Education.</text>
		<text transform="matrix(1 0 0 1 81.5082 1060.4801)" class="st2 st3 st7">Certificate of Achievement in Full Stack Web Development</text>
		<text transform="matrix(1 0 0 1 81.5082 1072.8801)" class="st2 st6 st7">University of California, Irvine</text>
		<text transform="matrix(1 0 0 1 81.5082 1097.5801)" class="st2 st3 st7">Certificate of Achievement in Graphic Design and Visual Communications</text>
		<text transform="matrix(1 0 0 1 81.5082 1109.8801)" class="st2 st6 st7">Goldenwest College</text>
		<text transform="matrix(1 0 0 1 81.5082 1134.5801)" class="st2 st3 st7">Certificate of Specialization in Web Site Design</text>
		<text transform="matrix(1 0 0 1 81.5082 1146.9801)" class="st2 st6 st7">Goldenwest College</text>
		<text transform="matrix(1 0 0 1 81.5082 1159.2802)" class="st2 st3 st7"> </text>
		<text transform="matrix(1 0 0 1 81.5082 1171.6802)" class="st2 st3 st7">Orange Coast College</text>
		<text transform="matrix(1 0 0 1 81.5082 1183.9801)" class="st2 st3 st7">August 2013 - Present</text>
		<text transform="matrix(1 0 0 1 81.5082 1196.3801)" class="st2 st6 st7">Attending classes required for university transfer with a major in Business Administration and Marketing </text>
		<text transform="matrix(1 0 0 1 81.5082 1221.0801)" class="st2 st3 st7">Goldenwest College</text>
		<text transform="matrix(1 0 0 1 81.5082 1233.3801)" class="st2 st3 st7">September 2009 - August 2013</text>
		<text transform="matrix(1 0 0 1 81.5082 1245.7802)" class="st2 st6 st7">Completed classes as part of the Digital Arts Program to further my knowledge of the latest programs and </text>
		<text transform="matrix(1 0 0 1 81.5082 1258.0801)" class="st2 st6 st7">keep up with current trends in web design. </text>
		<text transform="matrix(1 0 0 1 81.5082 1282.7802)" class="st2 st3 st7">University of California, Irvine</text>
		<text transform="matrix(1 0 0 1 81.5082 1295.1802)" class="st2 st3 st7">June 1995 - December 1999</text>
		<text transform="matrix(1 0 0 1 81.5082 1307.4801)" class="st2 st6 st7">Attended classes as part of the Certificate Program in Graphic Design and Visual Communications</text>
		<text transform="matrix(1 0 0 1 233.6082 1356.8801)" class="st2 st6 st7">References Available Upon Request</text>
	</g>
	<g class="st13">
		<path class="st0" d="M38.5,65.3c5.8-5.8,12.8-8.7,20.9-8.7c8.2,0,15.2,2.9,21,8.7c1.1,1.2,2.1,2.4,3.1,3.6v-7.5h4.9v52.5H100V66.3
			h-5.4v-4.9h5.4V47.1c0.2-4,1.7-7.4,4.6-10.3c2.6-2.4,5.4-3.7,8.7-4c-0.4-0.1-0.8-0.2-1.2-0.2H37.5c-1.9,0-3.4,1.5-3.4,3.4v34.8
			C35.3,68.8,36.8,67,38.5,65.3z"/>
		<path class="st0" d="M83.5,103.6c-0.9,1.3-2,2.5-3.1,3.6c-3,3-6.4,5.3-10.1,6.7h13.2V103.6z"/>
		<path class="st0" d="M104.9,47.4v14h10.6V37.1c-0.1,0-0.1,0-0.2,0c-2.6,0-5,1-7.2,3.1C106,42.2,105,44.6,104.9,47.4z"/>
		<path class="st0" d="M104.9,66.3v47.6h7.2c1.9,0,3.4-1.5,3.4-3.4V66.3H104.9z"/>
		<path class="st0" d="M83.5,81.5c-0.9-4.7-3.1-8.9-6.7-12.5c-4.8-4.8-10.6-7.2-17.3-7.2c-6.8,0-12.5,2.4-17.3,7.2S35,79.6,35,86.3
			c0,6.8,2.4,12.5,7.2,17.3s10.6,7.1,17.3,7.1c6.8,0,12.5-2.4,17.3-7.2c3.6-3.6,5.8-7.7,6.7-12.5V81.5z"/>
		<path class="st0" d="M38.5,107.2c-1.7-1.7-3.2-3.5-4.4-5.5v8.7c0,1.9,1.5,3.4,3.4,3.4h11C44.9,112.5,41.5,110.2,38.5,107.2z"/>
	</g>
</g>
</svg>
